Coordinates
version=1
nRows=4
nColumns=114
inDegrees=yes

Units are S.I. units (second, meters, Newtons, ...)
If the header above contains a line with 'inDegrees', this indicates whether rotational values are in degrees (yes) or radians (no).

endheader 
time	pelvis_tilt	pelvis_list	pelvis_rotation	pelvis_tx	pelvis_ty	pelvis_tz	hip_flexion_l	hip_adduction_l	hip_rotation_l	hip_flexion_r	hip_adduction_r	hip_rotation_r	knee_angle_l	knee_angle_r	ankle_angle_l	ankle_angle_r	subtalar_angle_l	subtalar_angle_r	mtp_angle_l	mtp_angle_r	lumbar_extension	lumbar_bending	lumbar_rotation	arm_flex_l	arm_add_l	arm_rot_l	arm_flex_r	arm_add_r	arm_rot_r	elbow_flex_l	elbow_flex_r	pro_sup_l	pro_sup_r	addbrev_l/activation	addlong_l/activation	addmagDist_l/activation	addmagIsch_l/activation	addmagMid_l/activation	addmagProx_l/activation	bflh_l/activation	bfsh_l/activation	edl_l/activation	ehl_l/activation	fdl_l/activation	fhl_l/activation	gaslat_l/activation	gasmed_l/activation	glmax1_l/activation	glmax2_l/activation	glmax3_l/activation	glmed1_l/activation	glmed2_l/activation	glmed3_l/activation	glmin1_l/activation	glmin2_l/activation	glmin3_l/activation	grac_l/activation	iliacus_l/activation	perbrev_l/activation	perlong_l/activation	piri_l/activation	psoas_l/activation	recfem_l/activation	sart_l/activation	semimem_l/activation	semiten_l/activation	soleus_l/activation	tfl_l/activation	tibant_l/activation	tibpost_l/activation	vasint_l/activation	vaslat_l/activation	vasmed_l/activation	addbrev_r/activation	addlong_r/activation	addmagDist_r/activation	addmagIsch_r/activation	addmagMid_r/activation	addmagProx_r/activation	bflh_r/activation	bfsh_r/activation	edl_r/activation	ehl_r/activation	fdl_r/activation	fhl_r/activation	gaslat_r/activation	gasmed_r/activation	glmax1_r/activation	glmax2_r/activation	glmax3_r/activation	glmed1_r/activation	glmed2_r/activation	glmed3_r/activation	glmin1_r/activation	glmin2_r/activation	glmin3_r/activation	grac_r/activation	iliacus_r/activation	perbrev_r/activation	perlong_r/activation	piri_r/activation	psoas_r/activation	recfem_r/activation	sart_r/activation	semimem_r/activation	semiten_r/activation	soleus_r/activation	tfl_r/activation	tibant_r/activation	tibpost_r/activation	vasint_r/activation	vaslat_r/activation	vasmed_r/activation	
          0.77000000	         -3.91902288	          1.87507505	        -32.57703344	          1.29051440	          0.93121745	          0.37992729	          0.21190414	         -4.58876443	         -8.86549937	          0.67132975	         -3.49585140	        -12.07615874	          9.12739218	          9.59295234	         10.28739861	         12.13071046	         -2.62214572	        -12.28515422	          4.99979406	          4.99949089	         -4.01851532	         -2.73158535	          2.38512937	          6.61879582	        -17.91984466	         39.43124973	          2.37280428	        -15.38807926	         24.68905954	         21.76566871	         22.76055265	         89.35212232	         87.30438813	          0.01429906	          0.11586721	          0.01010136	          0.01006850	          0.01027082	          0.01198082	          0.01001871	          0.01070429	          0.05868871	          0.01923679	          0.01145519	          0.01090164	          0.01013906	          0.01014296	          0.01005889	          0.01003168	          0.01003211	          0.01570910	          0.01014254	          0.01008633	          0.03637045	          0.04019877	          0.02704741	          0.01063926	          0.12207160	          0.01748461	          0.02262457	          0.01030893	          0.11848866	          0.02537520	          0.08693351	          0.01000942	          0.01004183	          0.01009458	          0.09324771	          0.07500724	          0.01033290	          0.01090870	          0.01042919	          0.01075652	          0.03630273	          0.10551370	          0.01021665	          0.01010973	          0.01066317	          0.03280745	          0.01009704	          0.03584723	          0.03677766	          0.02355560	          0.01132738	          0.01069053	          0.01604060	          0.01093513	          0.01047761	          0.01012951	          0.01012810	          0.01006820	          0.01133429	          0.01305226	          0.01018490	          0.01721899	          0.03092858	          0.02632426	          0.06448236	          0.01898103	          0.02296925	          0.05069237	          0.08740559	          0.02192902	          0.06058594	          0.01003508	          0.01011421	          0.01009016	          0.03351597	          0.05403206	          0.01049278	          0.01018301	          0.01007322	          0.01014227	
          0.78000000	         -4.03769903	          1.97761160	        -32.56603243	          1.28819670	          0.93487645	          0.37991267	          0.70284418	         -4.67998701	         -8.92576884	          1.18942931	         -3.53206708	        -12.14050461	          9.57810877	         10.09386421	         10.44892647	         12.23937334	         -2.66800070	        -12.45966762	          4.41588478	          4.42483854	         -4.16113044	         -2.74587029	          2.20401687	          6.65285264	        -18.01666218	         39.52615187	          2.40088432	        -15.42445170	         24.77566128	         21.68944658	         22.63101712	         89.58864243	         87.44071486	          0.01202723	          0.09659151	          0.01004861	          0.01004229	          0.01006783	          0.01030621	          0.01006562	          0.06940619	          0.04932203	          0.03339165	          0.01072553	          0.01017371	          0.04603221	          0.09995340	          0.01011483	          0.01004660	          0.01002425	          0.01768777	          0.01344932	          0.01205216	          0.03064381	          0.03436386	          0.03122942	          0.01526040	          0.10179128	          0.01788841	          0.02077365	          0.03083486	          0.09882221	          0.02115229	          0.07315959	          0.01016331	          0.01018170	          0.01001582	          0.07772199	          0.08176251	          0.01665088	          0.01002164	          0.01000721	          0.01001559	          0.03319542	          0.08866944	          0.01012806	          0.01010913	          0.01022558	          0.02762684	          0.01008966	          0.04130993	          0.03129239	          0.02243089	          0.01201693	          0.01036529	          0.02535779	          0.04780305	          0.01008828	          0.01005166	          0.01004081	          0.01197251	          0.01049994	          0.01097234	          0.01417777	          0.01726246	          0.02599438	          0.02652616	          0.05750247	          0.01898872	          0.01964223	          0.04230581	          0.07323672	          0.01830148	          0.05195639	          0.01016052	          0.01052837	          0.01005421	          0.02818276	          0.04569187	          0.01027692	          0.01004606	          0.01001485	          0.01003278	
          0.79000000	         -4.15509180	          2.06391169	        -32.60133827	          1.28567871	          0.93757669	          0.37988088	          1.21422374	         -4.78817313	         -8.99544421	          1.73747558	         -3.54419764	        -12.22258817	         10.05044874	         10.60507455	         10.51029697	         12.32292955	         -2.78745595	        -12.51098621	          3.71434882	          3.73591504	         -4.35838870	         -2.75334857	          2.10342767	          6.66678434	        -18.16434620	         39.45823390	          2.33369204	        -15.53782780	         24.75403290	         21.92452579	         22.86255203	         89.59437139	         87.43768923	          0.05148780	          0.10320011	          0.01298221	          0.01152148	          0.02545722	          0.03978238	          0.03277198	          0.05791229	          0.04112513	          0.02790588	          0.02564097	          0.03283055	          0.10961559	          0.13334997	          0.01022587	          0.01013597	          0.01044349	          0.01477385	          0.01128170	          0.01023017	          0.02559607	          0.02869991	          0.02610743	          0.03715029	          0.08485758	          0.01497572	          0.01734247	          0.02576454	          0.08239632	          0.01764844	          0.06103002	          0.05244796	          0.02802854	          0.03700097	          0.06479990	          0.06815536	          0.04308121	          0.01018468	          0.01006080	          0.01012527	          0.03410464	          0.07404294	          0.01244119	          0.01090441	          0.01698678	          0.03556013	          0.01393203	          0.03461695	          0.02615258	          0.01888213	          0.01400058	          0.01518651	          0.09340735	          0.11688548	          0.01159154	          0.01053501	          0.01154065	          0.01024365	          0.01085867	          0.01785635	          0.01195774	          0.01462289	          0.02224299	          0.02589028	          0.04801364	          0.01771922	          0.02049770	          0.06357924	          0.06117661	          0.02628640	          0.04348610	          0.01122290	          0.01215153	          0.04850779	          0.02354019	          0.03811246	          0.01261051	          0.01045671	          0.01013854	          0.01029884	
          0.80000000	         -4.33379788	          2.17168999	        -32.64381901	          1.28302189	          0.93945994	          0.37981524	          1.89117636	         -4.93878703	         -9.07137188	          2.42220562	         -3.53505324	        -12.27275497	         10.69150738	         11.22271309	         10.64117124	         12.42231339	         -2.93863548	        -12.63972584	          2.81781749	          2.84416431	         -4.49976492	         -2.74996033	          2.01990560	          6.68441481	        -18.30904125	         39.34020077	          2.29124662	        -15.63903356	         24.76081356	         22.15962763	         23.09946107	         89.41528636	         87.28982791	          0.04301265	          0.08603228	          0.01104106	          0.01024507	          0.02135657	          0.03334787	          0.02744687	          0.04840132	          0.03564346	          0.02343261	          0.02147932	          0.02742491	          0.10080268	          0.13501490	          0.01218598	          0.01113717	          0.01042843	          0.01246832	          0.01331464	          0.01562399	          0.02143924	          0.02406349	          0.02229218	          0.03126951	          0.07075601	          0.01408838	          0.02332649	          0.03214276	          0.06871977	          0.01472314	          0.05096343	          0.04383519	          0.02380687	          0.03554991	          0.05401692	          0.05683014	          0.03594657	          0.01014574	          0.01004796	          0.01010487	          0.03636282	          0.07004246	          0.01130917	          0.01030244	          0.01466787	          0.04449147	          0.01182522	          0.02994952	          0.02197162	          0.01639646	          0.01447363	          0.01502909	          0.09616243	          0.13002007	          0.01113073	          0.01028534	          0.01086960	          0.01009994	          0.01044622	          0.02047738	          0.01028775	          0.01271815	          0.02439709	          0.02920006	          0.04023842	          0.01562831	          0.01726465	          0.05503870	          0.05739317	          0.02203608	          0.03798316	          0.01018503	          0.01091128	          0.04466241	          0.02363984	          0.03186005	          0.01585339	          0.01023740	          0.01007907	          0.01017109	
